<?xml version="1.0" standalone="no"?>
<!DOCTYPE svg PUBLIC "-//W3C//DTD SVG 20010904//EN"
 "http://www.w3.org/TR/2001/REC-SVG-20010904/DTD/svg10.dtd">
<svg version="1.0" xmlns="http://www.w3.org/2000/svg"
 width="227.000000pt" height="227.000000pt" viewBox="0 0 227.000000 227.000000"
 preserveAspectRatio="xMidYMid meet">
<metadata>
Created by potrace 1.11, written by Peter Selinger 2001-2013
</metadata>
<g transform="translate(0.000000,227.000000) scale(0.100000,-0.100000)"
fill="#000000" stroke="none">
<path d="M1381 2259 c-18 -4 -43 -12 -55 -18 -11 -5 -40 -15 -64 -21 -24 -6
-45 -17 -48 -24 -2 -6 -6 -399 -7 -871 l-2 -860 -35 3 c-19 2 -51 11 -70 20
l-35 17 -3 231 -2 232 -168 57 c-181 61 -229 68 -312 40 -80 -27 -78 -19 -76
-288 1 -269 -7 -244 94 -278 77 -26 84 -39 83 -159 0 -47 3 -90 7 -97 6 -10
617 -222 689 -240 22 -5 76 9 171 44 l42 16 0 53 c0 62 12 74 101 100 30 9 59
20 64 24 9 7 13 1461 6 1796 l-3 111 -107 35 c-58 20 -135 47 -171 60 -48 18
-74 23 -99 17z m78 -55 c17 -4 31 -9 31 -13 0 -3 -20 -14 -46 -23 -45 -16 -57
-15 -129 12 -49 19 71 38 144 24z m174 -58 c20 -4 37 -10 37 -14 0 -4 -24 -14
-53 -22 -46 -14 -57 -14 -94 -1 -24 9 -43 19 -43 23 0 8 78 26 100 23 8 -1 32
-5 53 -9z m-293 -24 l35 -17 2 -82 c1 -46 -2 -85 -7 -88 -8 -5 -99 23 -116 36
-6 5 -11 46 -12 95 l-2 86 32 -6 c18 -3 48 -14 68 -24z m188 -59 c17 -4 22
-13 23 -37 0 -17 1 -59 2 -94 1 -34 1 -62 -1 -62 -12 0 -109 35 -119 43 -13
10 -19 168 -7 180 4 3 23 -1 43 -10 20 -8 46 -18 59 -20z m-222 -159 c27 -9
54 -21 59 -26 6 -5 10 -47 11 -94 l1 -86 -28 6 c-15 3 -45 13 -66 23 l-38 18
-1 88 c-1 48 2 87 5 87 4 0 30 -7 57 -16z m180 -60 c29 -8 57 -20 60 -26 12
-19 10 -178 -3 -178 -6 0 -36 10 -67 21 l-56 22 0 88 c0 49 3 89 6 89 3 0 30
-7 60 -16z m-148 -181 c12 -3 25 -10 29 -17 9 -13 11 -186 3 -186 -18 0 -115
42 -121 52 -5 7 -8 49 -7 94 l1 81 36 -9 c20 -5 46 -12 59 -15z m170 -59 c29
-11 43 -22 46 -37 8 -43 4 -152 -6 -158 -9 -6 -31 -1 -100 24 -28 9 -28 10
-28 104 0 107 -8 101 88 67z m-168 -183 c35 -16 35 -17 37 -86 1 -39 0 -80 -3
-92 l-4 -22 -58 21 c-31 12 -60 27 -64 33 -4 5 -7 47 -6 93 l1 83 31 -7 c17
-3 47 -14 66 -23z m178 -57 c25 -10 32 -19 33 -41 4 -93 3 -155 -1 -158 -3 -2
-32 7 -65 20 l-60 22 -2 92 -1 92 31 -7 c18 -3 47 -12 65 -20z m-188 -173 l45
-17 0 -92 c0 -51 -3 -92 -6 -92 -27 0 -111 34 -118 49 -10 18 -13 159 -4 174
3 5 12 5 22 1 9 -3 36 -14 61 -23z m217 -74 c13 -8 11 -182 -2 -182 -5 0 -36
8 -67 18 l-58 18 0 93 0 94 59 -18 c32 -10 63 -20 68 -23z m-768 -97 c14 -7
14 -9 1 -13 -8 -3 -30 -10 -49 -16 -25 -8 -45 -8 -75 1 -60 17 -63 24 -14 40
43 15 99 10 137 -12z m164 -54 l32 -13 -55 -16 c-47 -13 -62 -14 -105 -3 -48
13 -49 13 -25 26 56 30 93 31 153 6z m-332 -7 c46 -17 59 -27 60 -43 6 -90 3
-156 -7 -156 -15 0 -108 31 -117 40 -7 6 -11 100 -8 163 1 21 2 21 72 -4z
m697 3 c29 -10 55 -22 60 -26 12 -13 9 -176 -3 -176 -13 0 -107 31 -115 37 -6
6 -11 154 -5 171 5 15 1 15 63 -6z m-500 -68 l42 -16 0 -87 c0 -48 -2 -90 -5
-93 -7 -7 -116 37 -124 50 -5 8 -6 99 -2 160 1 14 15 12 89 -14z m678 10 c27
-9 53 -20 57 -24 12 -11 14 -185 2 -183 -6 1 -36 12 -67 24 l-58 21 0 89 c0
49 4 89 8 89 5 0 31 -7 58 -16z m-881 -174 c33 -11 62 -25 65 -30 10 -16 3
-174 -8 -178 -20 -6 -122 40 -123 56 -3 68 0 172 4 172 2 0 30 -9 62 -20z
m717 -6 c26 -8 48 -23 50 -32 4 -14 3 -167 -1 -181 -1 -2 -7 1 -13 6 -7 6 -31
16 -53 23 -22 7 -45 16 -51 21 -6 5 -11 46 -12 94 -1 97 0 97 80 69z m-542
-51 c25 -9 50 -20 56 -25 12 -9 16 -188 5 -188 -3 0 -30 9 -60 19 -61 20 -67
30 -65 111 4 117 -3 108 64 83z m771 -53 c3 -59 0 -152 -5 -157 -5 -6 -94 25
-113 40 -13 10 -19 168 -7 179 3 4 32 -4 65 -15 50 -19 59 -26 60 -47z m-246
-128 c28 -9 55 -21 61 -25 18 -11 18 -177 1 -177 -14 0 -109 30 -117 37 -6 6
-11 154 -5 171 5 15 1 15 60 -6z m-175 -58 c10 -4 -4 -13 -36 -25 -51 -19 -52
-19 -100 0 -52 20 -52 21 16 43 15 5 92 -7 120 -18z m-345 -1 c28 -10 53 -22
57 -28 5 -5 7 -47 6 -93 -2 -94 2 -90 -82 -59 -46 17 -52 31 -50 112 3 100 -4
93 69 68z m703 -1 c29 -10 55 -21 58 -25 8 -8 9 -165 1 -173 -6 -7 -94 23
-114 39 -13 9 -16 177 -4 177 4 0 30 -8 59 -18z m-291 -83 c-11 -8 -67 12 -67
23 0 4 11 8 24 8 14 0 28 6 32 12 6 9 10 5 14 -12 4 -14 2 -28 -3 -31z m-232
24 c61 -19 57 -11 59 -131 1 -83 3 -82 -88 -42 l-46 19 0 86 c0 48 4 85 10 85
5 0 34 -8 65 -17z m174 -59 c35 -10 55 -22 60 -36 8 -23 7 -156 -2 -164 -11
-11 -119 31 -126 48 -5 13 -6 124 -2 161 1 10 10 9 70 -9z m204 -66 c32 -12
29 -2 31 -111 l2 -88 -24 6 c-13 3 -43 15 -67 26 l-42 20 0 88 0 89 36 -10
c20 -5 48 -14 64 -20z"/>
</g>
</svg>
